solid OpenSCAD_Model
  facet normal -1 0 0
    outer loop
      vertex -3.2 -3.2 0
      vertex -3.2 63.2 12.8
      vertex -3.2 63.2 0
    endloop
  endfacet
  facet normal -1 -0 0
    outer loop
      vertex -3.2 63.2 12.8
      vertex -3.2 -3.2 0
      vertex -3.2 -3.2 12.8
    endloop
  endfacet
  facet normal 0 0 1
    outer loop
      vertex 60.3 0 12.8
      vertex 63.2 63.2 12.8
      vertex 60.3 60.3 12.8
    endloop
  endfacet
  facet normal 0 0 1
    outer loop
      vertex 63.2 63.2 12.8
      vertex 0 60.3 12.8
      vertex 60.3 60.3 12.8
    endloop
  endfacet
  facet normal 0 0 1
    outer loop
      vertex 0 60.3 12.8
      vertex -3.2 63.2 12.8
      vertex 0 0 12.8
    endloop
  endfacet
  facet normal -0 0 1
    outer loop
      vertex -3.2 63.2 12.8
      vertex 0 60.3 12.8
      vertex 63.2 63.2 12.8
    endloop
  endfacet
  facet normal 0 0 1
    outer loop
      vertex 63.2 63.2 12.8
      vertex 60.3 0 12.8
      vertex 63.2 -3.2 12.8
    endloop
  endfacet
  facet normal -0 0 1
    outer loop
      vertex 0 0 12.8
      vertex 63.2 -3.2 12.8
      vertex 60.3 0 12.8
    endloop
  endfacet
  facet normal 0 0 1
    outer loop
      vertex 0 0 12.8
      vertex -3.2 -3.2 12.8
      vertex 63.2 -3.2 12.8
    endloop
  endfacet
  facet normal 0 0 1
    outer loop
      vertex -3.2 -3.2 12.8
      vertex 0 0 12.8
      vertex -3.2 63.2 12.8
    endloop
  endfacet
  facet normal 1 -0 0
    outer loop
      vertex 63.2 -3.2 12.8
      vertex 63.2 63.2 0
      vertex 63.2 63.2 12.8
    endloop
  endfacet
  facet normal 1 0 0
    outer loop
      vertex 63.2 63.2 0
      vertex 63.2 -3.2 12.8
      vertex 63.2 -3.2 0
    endloop
  endfacet
  facet normal 0 1 -0
    outer loop
      vertex 63.2 63.2 0
      vertex -3.2 63.2 12.8
      vertex 63.2 63.2 12.8
    endloop
  endfacet
  facet normal 0 1 0
    outer loop
      vertex -3.2 63.2 12.8
      vertex 63.2 63.2 0
      vertex -3.2 63.2 0
    endloop
  endfacet
  facet normal 0 0 -1
    outer loop
      vertex -3.2 -3.2 0
      vertex 63.2 63.2 0
      vertex 63.2 -3.2 0
    endloop
  endfacet
  facet normal -0 0 -1
    outer loop
      vertex 63.2 63.2 0
      vertex -3.2 -3.2 0
      vertex -3.2 63.2 0
    endloop
  endfacet
  facet normal 0 -1 0
    outer loop
      vertex -3.2 -3.2 0
      vertex 63.2 -3.2 12.8
      vertex -3.2 -3.2 12.8
    endloop
  endfacet
  facet normal 0 -1 -0
    outer loop
      vertex 63.2 -3.2 12.8
      vertex -3.2 -3.2 0
      vertex 63.2 -3.2 0
    endloop
  endfacet
  facet normal 1 -0 0
    outer loop
      vertex 0 0 12.8
      vertex 0 60.3 5.6
      vertex 0 60.3 12.8
    endloop
  endfacet
  facet normal 1 0 0
    outer loop
      vertex 0 60.3 5.6
      vertex 0 0 12.8
      vertex 0 0 5.6
    endloop
  endfacet
  facet normal -1 0 0
    outer loop
      vertex 60.3 0 5.6
      vertex 60.3 60.3 12.8
      vertex 60.3 60.3 5.6
    endloop
  endfacet
  facet normal -1 -0 0
    outer loop
      vertex 60.3 60.3 12.8
      vertex 60.3 0 5.6
      vertex 60.3 0 12.8
    endloop
  endfacet
  facet normal -0 0 1
    outer loop
      vertex 0 60.3 5.6
      vertex 60.3 0 5.6
      vertex 60.3 60.3 5.6
    endloop
  endfacet
  facet normal 0 0 1
    outer loop
      vertex 60.3 0 5.6
      vertex 0 60.3 5.6
      vertex 0 0 5.6
    endloop
  endfacet
  facet normal 0 1 -0
    outer loop
      vertex 60.3 0 5.6
      vertex 0 0 12.8
      vertex 60.3 0 12.8
    endloop
  endfacet
  facet normal 0 1 0
    outer loop
      vertex 0 0 12.8
      vertex 60.3 0 5.6
      vertex 0 0 5.6
    endloop
  endfacet
  facet normal 0 -1 0
    outer loop
      vertex 0 60.3 5.6
      vertex 60.3 60.3 12.8
      vertex 0 60.3 12.8
    endloop
  endfacet
  facet normal 0 -1 -0
    outer loop
      vertex 60.3 60.3 12.8
      vertex 0 60.3 5.6
      vertex 60.3 60.3 5.6
    endloop
  endfacet
endsolid OpenSCAD_Model
